<svg width="21" height="23" viewBox="0 0 21 23" fill="none" xmlns="http://www.w3.org/2000/svg">
<path d="M0 6.08933H4.64678V1H0V6.08933ZM1.23063 2.34783H3.41631V4.74168H1.23063V2.34783Z" fill="#FF4A17"/>
<path d="M6.12305 1V6.08933H20.9995V1H6.12305ZM19.7689 4.74168H7.35368V2.34783H19.7689V4.74168Z" fill="#FF4A17"/>
<path d="M0 12.6932H4.64678V7.60388H0V12.6932ZM1.23063 8.95154H3.41631V11.3454H1.23063V8.95154Z" fill="#FF4A17"/>
<path d="M6.12305 12.6932H20.9995V7.60388H6.12305V12.6932ZM7.35368 8.95154H19.7689V11.3454H7.35368V8.95154Z" fill="#FF4A17"/>
<path d="M0 19.297H4.64678V14.2075H0V19.297ZM1.23063 15.5554H3.41631V17.9492H1.23063V15.5554Z" fill="#FF4A17"/>
<path d="M6.12305 19.297H20.9995V14.2075H6.12305V19.297ZM7.35368 15.5554H19.7689V17.9492H7.35368V15.5554Z" fill="#FF4A17"/>
</svg>
