<svg width="25" height="20" viewBox="0 0 25 20" fill="none" xmlns="http://www.w3.org/2000/svg">
<path d="M24.9999 5.3298C24.9993 5.12185 24.9151 4.92827 24.7854 4.79334L20.3911 0.223285C20.2506 0.0772892 20.0597 0 19.8728 0C19.7465 0 8.30898 0 8.05664 0C7.65215 0 7.32422 0.341047 7.32422 0.761719V1.84052C6.725 2.01754 6.14741 2.26809 5.59746 2.58959L4.8604 1.82305C4.57441 1.52557 4.11064 1.52557 3.82461 1.82305L1.75293 3.97759C1.46709 4.27482 1.46694 4.75739 1.75293 5.05482L2.48994 5.82126C2.18091 6.39321 1.93999 6.99395 1.76973 7.61719H0.732422C0.32793 7.61719 0 7.95823 0 8.37891V11.4258C0 11.8465 0.32793 12.1875 0.732422 12.1875H1.76973C1.93999 12.8107 2.18086 13.4114 2.48999 13.9833L1.75293 14.7499C1.46704 15.0472 1.46694 15.5297 1.75293 15.8271L3.82456 17.9815C4.1106 18.279 4.57432 18.279 4.86035 17.9815L5.59731 17.2151C6.14732 17.5366 6.7249 17.7871 7.32417 17.9642V19.043C7.32417 19.4636 7.6521 19.8047 8.05659 19.8047H24.2675C24.672 19.8047 25 19.4636 25 19.043V5.33203C25 5.33127 24.9999 5.33056 24.9999 5.3298ZM20.6055 2.60066L22.4994 4.57031H20.6055V2.60066ZM10.2539 9.90275C10.2537 10.3226 9.9252 10.664 9.52149 10.664C9.11763 10.664 8.78906 10.3223 8.78906 9.90229C8.78906 9.48228 9.11763 9.14057 9.52149 9.14057C9.9252 9.14057 10.2537 9.48203 10.2539 9.90178V9.90275ZM10.2539 7.74815C10.0247 7.6636 9.77822 7.61714 9.52149 7.61714C8.30991 7.61714 7.32422 8.64226 7.32422 9.90229C7.32422 11.1623 8.30991 12.1874 9.52149 12.1874C9.77822 12.1874 10.0247 12.141 10.2539 12.0564V13.6343C10.0143 13.6848 9.76943 13.7109 9.52149 13.7109C7.5022 13.7109 5.85938 12.0024 5.85938 9.90234C5.85938 7.80229 7.5022 6.09375 9.52149 6.09375C9.76943 6.09375 10.0143 6.1199 10.2539 6.17043V7.74815ZM8.20234 16.6195C7.3832 16.4466 6.60562 16.1095 5.89121 15.6176C5.60088 15.4177 5.21528 15.458 4.96899 15.7141L4.34248 16.3657L3.30664 15.2885L3.93325 14.6368C4.17949 14.3807 4.21831 13.9797 4.02603 13.6776C3.55308 12.9348 3.22896 12.1261 3.06265 11.2742C2.99336 10.9192 2.69321 10.6641 2.34487 10.6641H1.46484V9.14062H2.34487C2.69321 9.14062 2.99336 8.8855 3.06265 8.53044C3.22896 7.67843 3.55308 6.86974 4.02603 6.12686C4.21831 5.82486 4.17949 5.42379 3.9332 5.1677L3.30664 4.51613L4.34243 3.43891L4.96904 4.09058C5.21528 4.34672 5.60088 4.38699 5.89126 4.18707C6.60566 3.69515 7.3832 3.35806 8.2023 3.18515C8.5437 3.11309 8.78901 2.80094 8.78901 2.43867V1.52344H10.2539V4.62546C10.0124 4.58951 9.76797 4.57031 9.52144 4.57031C6.69443 4.57031 4.39448 6.96226 4.39448 9.90234C4.39448 12.8424 6.69443 15.2344 9.52144 15.2344C9.76797 15.2344 10.0124 15.2152 10.2539 15.1792V18.2812H8.78901V17.366C8.78906 17.0037 8.54375 16.6916 8.20234 16.6195ZM23.5352 18.2812H11.7188V1.52344H19.1406V5.33203C19.1406 5.7527 19.4686 6.09375 19.873 6.09375H23.5352V18.2812Z" fill="#FF4A17"/>
<path d="M13.916 6.09375H16.9434C17.3479 6.09375 17.6758 5.7527 17.6758 5.33203C17.6758 4.91136 17.3479 4.57031 16.9434 4.57031H13.916C13.5115 4.57031 13.1836 4.91136 13.1836 5.33203C13.1836 5.7527 13.5115 6.09375 13.916 6.09375Z" fill="#FF4A17"/>
<path d="M13.1836 8.37891C13.1836 8.79958 13.5115 9.14062 13.916 9.14062H21.3379C21.7424 9.14062 22.0703 8.79958 22.0703 8.37891C22.0703 7.95823 21.7424 7.61719 21.3379 7.61719H13.916C13.5115 7.61719 13.1836 7.95823 13.1836 8.37891Z" fill="#FF4A17"/>
<path d="M21.3379 10.6641H13.916C13.5115 10.6641 13.1836 11.0051 13.1836 11.4258C13.1836 11.8465 13.5115 12.1875 13.916 12.1875H21.3379C21.7424 12.1875 22.0703 11.8465 22.0703 11.4258C22.0703 11.0051 21.7424 10.6641 21.3379 10.6641Z" fill="#FF4A17"/>
<path d="M21.3379 13.7109H13.916C13.5115 13.7109 13.1836 14.052 13.1836 14.4727C13.1836 14.8933 13.5115 15.2344 13.916 15.2344H21.3379C21.7424 15.2344 22.0703 14.8933 22.0703 14.4727C22.0703 14.052 21.7424 13.7109 21.3379 13.7109Z" fill="#FF4A17"/>
</svg>
