<svg width="22" height="22" viewBox="0 0 22 22" fill="none" xmlns="http://www.w3.org/2000/svg">
<path d="M20.8151 8.72238L12.5594 0.592226C12.1313 0.21016 11.574 -0.00102798 10.9963 3.76262e-06C10.4185 0.00101131 9.86197 0.214009 9.43512 0.597488L1.18512 8.72249C0.439738 9.50981 0.0173905 10.5416 0 11.6178V19.3219C0.00491071 20.0358 0.2971 20.7188 0.812743 21.2209C1.32837 21.7229 2.0251 22.0032 2.75 22H19.25C19.975 22.0032 20.6717 21.7229 21.1873 21.2209C21.7029 20.7187 21.9951 20.0358 22 19.3219V11.6178C21.9826 10.5416 21.5603 9.50981 20.8149 8.72249L20.8151 8.72238ZM9.16981 20.1944L9.19088 12.9721L13.2922 12.9955V20.1945L9.16981 20.1944ZM20.1672 19.3218C20.1627 19.5572 20.0639 19.7811 19.892 19.9447C19.7201 20.1081 19.4895 20.198 19.2505 20.1944H15.1255V12.9953C15.1249 12.5105 14.9291 12.0456 14.581 11.7026C14.2328 11.3599 13.7607 11.167 13.2684 11.1664H9.19087C8.69858 11.167 8.22654 11.3598 7.87826 11.7026C7.53021 12.0456 7.33439 12.5105 7.33376 12.9953V20.1944H2.75042C2.51144 20.198 2.28084 20.1081 2.10897 19.9447C1.93709 19.7811 1.83826 19.5572 1.83376 19.3218V11.6178C1.85259 11.0205 2.08155 10.4482 2.48198 9.99922L10.7267 1.87938H10.7265C10.8078 1.82376 10.906 1.79737 11.0046 1.80442C11.0981 1.79737 11.1914 1.82195 11.269 1.87414L19.519 9.99914C19.9194 10.4481 20.1486 11.0204 20.1672 11.6177L20.1672 19.3218Z" fill="#FF4A17"/>
</svg>
