<?xml version="1.0" standalone="no"?>
<!DOCTYPE svg PUBLIC "-//W3C//DTD SVG 20010904//EN"
 "http://www.w3.org/TR/2001/REC-SVG-20010904/DTD/svg10.dtd">
<svg version="1.0" xmlns="http://www.w3.org/2000/svg"
 width="132.000000pt" height="63.000000pt" viewBox="0 0 132.000000 63.000000"
 preserveAspectRatio="xMidYMid meet">

<g transform="translate(0.000000,63.000000) scale(0.100000,-0.100000)"
fill="#000000" stroke="none">
<path d="M490 590 c0 -27 3 -30 30 -30 27 0 30 3 30 30 0 27 -3 30 -30 30 -27
0 -30 -3 -30 -30z"/>
<path d="M630 511 l0 -41 46 0 45 0 -3 38 c-3 36 -4 37 -45 40 l-43 3 0 -40z"/>
<path d="M0 356 c0 -36 5 -68 10 -71 6 -3 10 -18 10 -33 0 -26 1 -25 45 18 51
50 76 47 27 -3 -57 -58 -38 -64 32 -11 25 21 50 34 54 30 7 -7 -4 -18 -72 -71
-40 -32 -17 -39 28 -9 51 35 58 23 7 -14 -45 -33 -45 -46 0 -30 25 9 52 5 38
-5 -2 -2 -24 -16 -49 -32 l-45 -29 49 -12 c27 -7 62 -22 77 -33 16 -12 31 -21
34 -21 10 0 5 225 -6 265 -21 76 -67 107 -181 120 l-58 6 0 -65z"/>
<path d="M424 410 c-59 -9 -80 -19 -114 -55 -24 -26 -25 -32 -28 -177 l-3
-150 29 20 c16 12 50 27 75 34 43 11 45 13 31 29 -8 9 -29 23 -45 29 -58 25
-26 37 35 14 31 -12 15 14 -25 40 -22 15 -38 30 -35 33 3 3 24 -6 47 -21 22
-15 44 -25 47 -21 7 6 -4 17 -73 71 -16 12 -26 26 -22 30 3 4 28 -9 53 -30 70
-53 89 -47 32 11 -47 49 -24 54 25 5 l42 -42 13 40 c6 22 12 65 12 95 0 62 4
60 -96 45z"/>
</g>
</svg>
